<?xml version="1.0" encoding="UTF-8"?>
<svg width="250" height="250" data-name="Layer 1" version="1.1" viewBox="0 0 250 250" xmlns="http://www.w3.org/2000/svg"><defs><style>.cls-1{fill:#0a0a0a;}.cls-2{fill:#d12027;}.cls-3,.cls-4{fill:#fff;}.cls-3{stroke:#000;stroke-miterlimit:10;stroke-width:3px;}</style></defs><title>No Script Logo</title><ellipse class="cls-1" cx="123.55" cy="133.28" rx="105.69" ry="100.52" fill="#0a0a0a"/><path d="m125.02 1.7057e-6a125 125 0 1 0 124.98 125 125 125 0 0 0-124.98-125zm-3.5559 39.559a85.505 85.505 0 0 1 49.865 13.616l-118.16 118.16a85.505 85.505 0 0 1 68.291-131.77zm77.098 41.954a85.505 85.505 0 0 1 11.963 43.476 85.505 85.505 0 0 1-85.506 85.525v-0.0195a85.505 85.505 0 0 1-43.46-11.979z" fill="#d12027" stroke-width=".99761"/><path class="cls-3" d="m115.67 71.857c1.3-8.72 8.27-12.13 17.87-10.7a44.15 44.15 0 0 1 10.33 3.11l22.57 13.48c0.2 0.12 0.4 0.22 0.6 0.33 7.64 5.21 17.69 2 23-7.5l0.8-1.43c5.84-10.4 3.73-24.16-4.62-30.16a101.34 101.34 0 0 0-43.39-18c-36.84-5.5-64.41 13.5-69.74 49.19-10.09 67.57 73.28 60 68.44 92.39-1.51 10.08-9.73 14.42-21.5 12.67-11.37-1.7-25.82-10.11-38-21.79-7.65-7.36-19.11-5-25.14 5.36l-0.25 0.43c-5.54 9.54-4.31 22.23 2.72 29 14.94 14.44 34.33 24.55 54.13 27.51 34 5.08 64.44-10.71 70.26-49.67 10.32-68.59-72.8-62.62-68.08-94.22z" fill="#fff" stroke="#000" stroke-miterlimit="10" stroke-width="3px"/><rect class="cls-2" transform="rotate(225)" x="-197.87" y="-35.708" width="39.39" height="83.22" fill="#d12027"/><g fill="#0a0a0a"><path class="cls-1" d="m178.11 43.737c-2.67 1.54 2.92 4 5.62 8.64s1.48 9.82 4.15 8.28 2.64-6.58-0.06-11.25-7.04-7.21-9.71-5.67z"/><path class="cls-1" d="m167.07 40.027c0.41 3.05-4.92 0.11-10.27 0.82s-8.68 4.83-9.09 1.78 3.59-6.11 8.94-6.83 10.01 1.18 10.42 4.23z"/><ellipse class="cls-1" transform="rotate(-74.08)" cx="-9.2102" cy="186.15" rx="5.72" ry="5.94"/><ellipse class="cls-1" transform="rotate(-74.08)" cx="-5.7522" cy="165.8" rx="5.72" ry="5.94"/></g><circle class="cls-4" transform="rotate(-5)" cx="155.21" cy="65.063" r="1.55" fill="#fff"/><circle class="cls-4" transform="rotate(-5)" cx="173.01" cy="75.188" r="1.55" fill="#fff"/><text x="-139.33472" y="41.158333" fill="#d12027" font-family="Jellee" font-size="40px" font-weight="bold" letter-spacing="0px" word-spacing="0px" style="font-feature-settings:normal;font-variant-caps:normal;font-variant-ligatures:normal;font-variant-numeric:normal;line-height:1.25" xml:space="preserve"><tspan x="-139.33472" y="77.271614"/></text><text x="191.86903" y="179.57651" fill="#ffffff" font-family="Jellee" font-size="40px" font-weight="bold" letter-spacing="0px" stroke="#0a0a0a" stroke-width="3.7795" word-spacing="0px" style="font-feature-settings:normal;font-variant-caps:normal;font-variant-ligatures:normal;font-variant-numeric:normal;line-height:1.25" xml:space="preserve"><tspan x="191.86903" y="215.68979"/></text><g transform="translate(.020817 -1.0233)" display="none" fill="#ffffff" font-family="Jellee" font-weight="bold" letter-spacing="0px" stroke="#0a0a0a" word-spacing="0px"><text x="124.01678" y="237.75764" font-size="30.893px" stroke-width="2" style="font-feature-settings:normal;font-variant-caps:normal;font-variant-ligatures:normal;font-variant-numeric:normal;line-height:1.25" xml:space="preserve"><tspan x="124.01678" y="237.75764" fill="#ffffff" font-family="Jellee" font-size="53.333px" font-weight="bold" stroke="#0a0a0a" stroke-width="2" style="font-feature-settings:normal;font-variant-caps:normal;font-variant-ligatures:normal;font-variant-numeric:normal">cript</tspan></text><text x="-0.18823318" y="51.450207" font-size="78.57px" stroke-width="2.3571" style="font-feature-settings:normal;font-variant-caps:normal;font-variant-ligatures:normal;font-variant-numeric:normal;line-height:1.25" xml:space="preserve"><tspan x="-0.18823318" y="51.450207" fill="#ffffff" font-family="Jellee" font-size="62.856px" font-weight="bold" stroke="#0a0a0a" stroke-width="2.3571" style="font-feature-settings:normal;font-variant-caps:normal;font-variant-ligatures:normal;font-variant-numeric:normal">No</tspan></text></g></svg>
