<?xml version="1.0" encoding="UTF-8"?>
<svg width="250" height="250" data-name="Layer 1" version="1.1" viewBox="0 0 250 250" xmlns="http://www.w3.org/2000/svg" xmlns:cc="http://creativecommons.org/ns#" xmlns:dc="http://purl.org/dc/elements/1.1/" xmlns:rdf="http://www.w3.org/1999/02/22-rdf-syntax-ns#">
 <metadata>
  <rdf:RDF>
   <cc:Work rdf:about="">
    <dc:format>image/svg+xml</dc:format>
    <dc:type rdf:resource="http://purl.org/dc/dcmitype/StillImage"/>
    <dc:title>No Script Logo</dc:title>
   </cc:Work>
  </rdf:RDF>
 </metadata>
 <defs>
  <style>.cls-1{fill:#0a0a0a;}.cls-2{fill:#d12027;}.cls-3,.cls-4{fill:#fff;}.cls-3{stroke:#000;stroke-miterlimit:10;stroke-width:3px;}</style>
 </defs>
 <title>No Script Logo</title>
 <ellipse class="cls-1" cx="123.55" cy="133.28" rx="105.69" ry="100.52" fill="#0a0a0a"/>
 <path d="m125.02 1.7057e-6a125 125 0 1 0 124.98 125 125 125 0 0 0-124.98-125zm-3.5559 39.559a85.505 85.505 0 0 1 49.865 13.616l-118.16 118.16a85.505 85.505 0 0 1 68.291-131.77zm77.098 41.954a85.505 85.505 0 0 1 11.963 43.476 85.505 85.505 0 0 1-85.506 85.525v-0.0195a85.505 85.505 0 0 1-43.46-11.979z" fill="#d12027" stroke-width=".99761"/>
 <path class="cls-3" d="m115.67 71.857c1.3-8.72 8.27-12.13 17.87-10.7a44.15 44.15 0 0 1 10.33 3.11l22.57 13.48c0.2 0.12 0.4 0.22 0.6 0.33 7.64 5.21 17.69 2 23-7.5l0.8-1.43c5.84-10.4 3.73-24.16-4.62-30.16a101.34 101.34 0 0 0-43.39-18c-36.84-5.5-64.41 13.5-69.74 49.19-10.09 67.57 73.28 60 68.44 92.39-1.51 10.08-9.73 14.42-21.5 12.67-11.37-1.7-25.82-10.11-38-21.79-7.65-7.36-19.11-5-25.14 5.36l-0.25 0.43c-5.54 9.54-4.31 22.23 2.72 29 14.94 14.44 34.33 24.55 54.13 27.51 34 5.08 64.44-10.71 70.26-49.67 10.32-68.59-72.8-62.62-68.08-94.22z" fill="#fff" stroke="#000" stroke-miterlimit="10" stroke-width="3px"/>
 <rect class="cls-2" transform="rotate(225)" x="-197.87" y="-35.708" width="39.39" height="83.22" fill="#d12027"/>
 <g transform="matrix(.76152 .55862 -.55862 .76152 238.06 8.1067)">
  <path transform="matrix(.99916 -.040999 -.042084 .99911 0 0)" d="m-21.476 69.364c0 2.6101-4.7176 4.4101-11.139 5.0172-6.5595 0.62015-9.1615-2.6244-9.1615-5.2345s3.5048-5.1652 10.166-4.7557c4.9184 0.30234 9.4673 2.0646 10.848 2.7264s3.1902 1.9124 3.387 2.296c0.15076 0.29396-4.1003-0.37214-4.1003-0.04949z" stroke-width="1.1092" style="paint-order:stroke fill markers"/>
  <path d="m-30.508 70.078a2.5019 1.5463 0 0 1-2.5019 1.5463 2.5019 1.5463 0 0 1-2.5019-1.5463 2.5019 1.5463 0 0 1 2.5019-1.5463 2.5019 1.5463 0 0 1 2.5019 1.5463z" fill="#fff" stroke-width="1.0298" style="paint-order:stroke fill markers"/>
 </g>
 <path d="m164.4 52.588c-4.9906-1.8508-6.4056 0.51382-2.2306 3.5175 3.2284 1.6562 12.293 6.3151 16.337 8.3895 0.53044 2.5428-0.57518 4.4311-1.6705 6.3236 2.8214-0.55243 5.0395-1.859 6.8619-3.6602 0.57077 0.29282 2.7868 1.4286 3.5529 1.8222 0.1587 1.1881-0.25522 3.3294-1.367 4.9295 1.7818-1.7852 2.6241-2.5619 3.7426-3.7102 2.4683 1.244 3.5152-2.7445 1.7058-3.6748-8.401-4.2319-19.395-10.081-26.932-13.937z" color="#000000" color-rendering="auto" dominant-baseline="auto" image-rendering="auto" shape-rendering="auto" solid-color="#000000" style="font-feature-settings:normal;font-variant-alternates:normal;font-variant-caps:normal;font-variant-ligatures:normal;font-variant-numeric:normal;font-variant-position:normal;isolation:auto;mix-blend-mode:normal;paint-order:stroke fill markers;shape-padding:0;text-decoration-color:#000000;text-decoration-line:none;text-decoration-style:solid;text-indent:0;text-orientation:mixed;text-transform:none;white-space:normal"/>
</svg>
