<?xml version="1.0" encoding="UTF-8"?>
<svg width="250" height="250" data-name="Layer 1" version="1.1" viewBox="0 0 250 250" xmlns="http://www.w3.org/2000/svg">
 <defs>
  <style>.cls-1{fill:#0a0a0a;}.cls-2{fill:#d12027;}.cls-3,.cls-4{fill:#fff;}.cls-3{stroke:#000;stroke-miterlimit:10;stroke-width:3px;}</style>
 </defs>
 <title>No Script Logo</title>
 <ellipse class="cls-1" cx="123.55" cy="133.28" rx="105.69" ry="100.52" fill="#0a0a0a"/>
 <path d="m125.02 1.7057e-6a125 125 0 1 0 124.98 125 125 125 0 0 0-124.98-125zm-3.5559 39.559a85.505 85.505 0 0 1 49.865 13.616l-118.16 118.16a85.505 85.505 0 0 1 68.291-131.77zm77.098 41.954a85.505 85.505 0 0 1 11.963 43.476 85.505 85.505 0 0 1-85.506 85.525v-0.0195a85.505 85.505 0 0 1-43.46-11.979z" fill="#d12027" stroke-width=".99761"/>
 <path class="cls-3" d="m115.67 71.857c1.3-8.72 8.27-12.13 17.87-10.7a44.15 44.15 0 0 1 10.33 3.11l22.57 13.48c0.2 0.12 0.4 0.22 0.6 0.33 7.64 5.21 17.69 2 23-7.5l0.8-1.43c5.84-10.4 3.73-24.16-4.62-30.16a101.34 101.34 0 0 0-43.39-18c-36.84-5.5-64.41 13.5-69.74 49.19-10.09 67.57 73.28 60 68.44 92.39-1.51 10.08-9.73 14.42-21.5 12.67-11.37-1.7-25.82-10.11-38-21.79-7.65-7.36-19.11-5-25.14 5.36l-0.25 0.43c-5.54 9.54-4.31 22.23 2.72 29 14.94 14.44 34.33 24.55 54.13 27.51 34 5.08 64.44-10.71 70.26-49.67 10.32-68.59-72.8-62.62-68.08-94.22z" fill="#fff" stroke="#000" stroke-miterlimit="10" stroke-width="3px"/>
 <rect class="cls-2" transform="rotate(225)" x="-197.87" y="-35.708" width="39.39" height="83.22" fill="#d12027"/>
 <g font-family="Jellee" font-weight="bold" letter-spacing="0px" word-spacing="0px">
  <text x="-139.33472" y="41.15834" fill="#d12027" font-size="40px" style="font-feature-settings:normal;font-variant-caps:normal;font-variant-ligatures:normal;font-variant-numeric:normal;line-height:1.25" xml:space="preserve"/>
  <text x="191.86903" y="179.57651" display="none" fill="#ffffff" font-size="40px" stroke="#0a0a0a" stroke-width="3.7795" style="font-feature-settings:normal;font-variant-caps:normal;font-variant-ligatures:normal;font-variant-numeric:normal;line-height:1.25" xml:space="preserve"/>
  <g transform="translate(.02082 -1.0233)" fill="#fff" stroke="#0a0a0a" stroke-width="3">
   <g aria-label="cript">
    <path d="m106.41 211.57q-5.0824 0-8.515-1.8893-3.4326-1.8893-5.1356-5.3485-1.6764-3.4592-1.6764-8.1957 0-4.3906 1.8094-7.9296 1.836-3.539 5.3751-5.588 3.5657-2.0755 8.5682-2.0755 3.1931 0 5.7742 0.90472 2.6077 0.90472 4.4704 2.5279 0.66523 0.58541 1.0112 1.5434t0.34592 1.9957q0 1.2506-0.61201 2.2884-0.58541 1.0112-1.6232 1.5966-1.0112 0.58541-2.2086 0.58541-1.2506 0-2.315-0.61202-1.0378-0.61202-1.6232-1.6232-0.5588-0.95794-1.4103-1.4369-0.8515-0.50558-2.182-0.50558-2.3682 0-3.8051 2.0755-1.4369 2.0489-1.4369 6.2 0 4.2043 1.4369 6.2266 1.4635 1.9957 3.8051 1.9957 1.2772 0 2.2352-0.5588 0.95794-0.58541 1.57-1.6764 0.66523-1.1176 1.6764-1.7828 1.0112-0.66523 2.315-0.66523 1.2506 0 2.315 0.63862 1.091 0.61202 1.7296 1.703 0.63862 1.0644 0.63862 2.3416 0 0.93132-0.34592 1.7828t-0.95794 1.4901q-1.8626 1.9159-4.6832 2.9536-2.794 1.0378-6.5459 1.0378z"/>
    <path d="m128.21 211.33q-1.3837 0-2.5545-0.66523-1.1442-0.69185-1.836-1.8627-0.69185-1.1708-0.69185-2.5279v-20.809q0-1.2772 0.63863-2.3416 0.63862-1.091 1.703-1.7296 1.091-0.63862 2.3416-0.63862 1.3039 0 2.3948 0.63862 1.091 0.63863 1.7296 1.7296 0.63862 1.0644 0.63862 2.3416v1.3039h0.21288q1.1176-3.1665 2.3948-4.5768 1.2772-1.4369 3.3794-1.4369 1.703 0 2.7674 0.71845 1.0644 0.69185 1.5167 1.703 0.45236 1.0112 0.45236 1.9957 0 1.57-1.1442 2.7408-1.1442 1.1442-3.1133 1.57-2.794 0.66524-4.2841 2.7142-1.4901 2.0223-1.4901 5.1356v8.9408q0 1.3571-0.69185 2.5279-0.69184 1.1442-1.8626 1.836-1.1442 0.69184-2.5013 0.69184z"/>
    <path d="m151.46 211.33q-1.3837 0-2.5545-0.66523-1.1442-0.69185-1.836-1.8627-0.69184-1.1708-0.69184-2.5279v-20.436q0-1.3837 0.69184-2.5279 0.69185-1.1708 1.836-1.8627 1.1708-0.69184 2.5545-0.69184 1.3571 0 2.5279 0.69184 1.1708 0.69185 1.836 1.8627 0.69184 1.1442 0.69184 2.5279v20.436q0 1.3571-0.69184 2.5279-0.69185 1.1442-1.8627 1.836-1.1442 0.69184-2.5013 0.69184zm-1.2506-33.501q-1.1442 0-2.1288-0.5588-0.98455-0.5854-1.57-1.57-0.5588-0.98455-0.5588-2.1288t0.5588-2.1288q0.5854-0.98455 1.57-1.5433 0.98455-0.58541 2.1288-0.58541h2.5013q1.1442 0 2.1288 0.58541 0.98455 0.55879 1.5433 1.5433 0.58541 0.98455 0.58541 2.1288t-0.58541 2.1288q-0.55879 0.98455-1.5433 1.57-0.98455 0.5588-2.1288 0.5588z"/>
    <path d="m166.82 223.44q-1.3837 0-2.5545-0.69185-1.1442-0.66523-1.836-1.836-0.69184-1.1708-0.69184-2.5279v-32.969q0-1.2772 0.61201-2.3416 0.63863-1.0644 1.703-1.6764 1.0644-0.63862 2.315-0.63862 1.3039 0 2.3682 0.63862 1.091 0.61202 1.703 1.6764 0.63863 1.0644 0.63863 2.3416v0.31931q1.7828-2.4747 3.9648-3.8318 2.2086-1.3571 5.721-1.3571 3.9116 0 6.5991 1.9957 2.7142 1.9957 4.0446 5.3751 1.3571 3.3794 1.3571 7.5571 0 4.9227-1.7562 8.5682-1.7296 3.6455-4.8163 5.588-3.0601 1.9425-6.9983 1.9425-4.2309 0-7.3176-2.794v9.606q0 1.3571-0.69184 2.5013-0.69185 1.1708-1.8627 1.8626-1.1442 0.69185-2.5013 0.69185zm10.245-18.68q1.5167 0 2.7674-0.93133t1.9957-2.8738q0.74506-1.9691 0.74506-4.9227 0-4.3107-1.4901-6.3064-1.4901-2.0223-3.8051-2.0223-2.5545 0-4.1244 2.0755-1.5433 2.0755-1.5433 6.2532 0 4.5768 1.4901 6.6523 1.5167 2.0755 3.9648 2.0755z"/>
    <path d="m208.89 211.57q-3.5124 0-5.588-1.1708-2.0755-1.1974-2.9802-3.5124-0.90471-2.315-0.90471-5.9605v-13.012h-1.5167q-0.90472 0-1.6764-0.45236t-1.224-1.224q-0.42575-0.77167-0.42575-1.6498 0-1.4103 0.95794-2.3948 0.98454-0.98455 2.3682-0.98455h1.5167v-3.7519q0-2.2884 1.3837-3.4592 1.3837-1.1974 3.5657-1.1974t3.5124 1.1974q1.3305 1.1708 1.3305 3.4592v3.7519h3.2197q0.90472 0 1.6764 0.45236t1.1974 1.224q0.45236 0.74506 0.45236 1.6498t-0.45236 1.6764q-0.42575 0.77167-1.1974 1.2506-0.77167 0.45236-1.6764 0.45236h-2.9802v12.134q0 1.5966 0.47897 2.4481 0.50558 0.8515 1.224 1.1708 0.74506 0.31931 1.8893 0.53219 3.273 0.61201 3.273 3.539 0 2.2086-1.9691 3.0335-1.9425 0.79829-5.4549 0.79829z"/>
   </g>
   <g aria-label="No">
    <path d="m9.788 139.1q-1.4648 0-2.6953-0.70312-1.2305-0.73243-1.9629-1.9336-0.70312-1.2305-0.70312-2.6367v-33.164q0-2.1094 1.0547-3.8965 1.0547-1.8164 2.8418-2.8711 1.7871-1.0547 3.9258-1.0547 2.0508 0 3.8379 1.0547 1.7871 1.0254 2.8125 2.7246l12.012 19.922q0.64453 1.0547 1.1426 2.0801 0.49805 0.9961 1.4355 3.0762h0.29297v-23.613q0-1.4355 0.70312-2.6367 0.70312-1.2012 1.9043-1.9043 1.2305-0.70312 2.666-0.70312 1.4062 0 2.6074 0.70312t1.9043 1.9043q0.70312 1.2012 0.70312 2.6367v33.721q0 1.9629-0.99609 3.6621-0.9668 1.6699-2.666 2.666-1.6699 0.9668-3.6328 0.9668-1.9922 0-3.6914-0.9375-1.6699-0.9668-2.6367-2.5781l-12.598-20.771q-0.99609-1.6406-1.582-2.7539-0.55664-1.1426-1.1133-2.5195h-0.29297v24.287q0 1.4062-0.73242 2.6367-0.70312 1.2012-1.9336 1.9336-1.2012 0.70312-2.6074 0.70312z"/>
    <path d="m66.126 139.36q-5.3906 0-9.2285-2.1973-3.8379-2.2266-5.8301-6.0938-1.9922-3.8672-1.9922-8.7598 0-4.9219 2.0215-8.7891 2.0508-3.8965 5.9473-6.0938 3.9258-2.2266 9.3164-2.2266 5.4199 0 9.2871 2.2266 3.8965 2.1973 5.8887 6.0644 1.9922 3.8672 1.9922 8.7012 0 4.9512-2.0801 8.8477-2.0508 3.8965-6.0059 6.123-3.9258 2.1973-9.3164 2.1973zm0.17578-7.998q2.9883 0 4.4824-2.4316 1.5234-2.4316 1.5234-6.6797 0-4.1895-1.5234-6.6211-1.4941-2.4316-4.541-2.4316-2.9883 0-4.5117 2.4316-1.4941 2.4024-1.4941 6.5625 0 4.2774 1.5234 6.7383 1.5234 2.4316 4.541 2.4316z"/>
   </g>
  </g>
 </g>
 <g transform="matrix(.76152 .55862 -.55862 .76152 238.06 8.1067)">
  <path transform="matrix(.99916 -.040999 -.042084 .99911 0 0)" d="m-21.476 69.364c0 2.6101-4.7176 4.4101-11.139 5.0172-6.5595 0.62015-9.1615-2.6244-9.1615-5.2345s3.5048-5.1652 10.166-4.7557c4.9184 0.30234 9.4673 2.0646 10.848 2.7264s3.1902 1.9124 3.387 2.296c0.15076 0.29396-4.1003-0.37214-4.1003-0.04949z" stroke-width="1.1092" style="paint-order:stroke fill markers"/>
  <path d="m-30.508 70.078a2.5019 1.5463 0 0 1-2.5019 1.5463 2.5019 1.5463 0 0 1-2.5019-1.5463 2.5019 1.5463 0 0 1 2.5019-1.5463 2.5019 1.5463 0 0 1 2.5019 1.5463z" fill="#fff" stroke-width="1.0298" style="paint-order:stroke fill markers"/>
 </g>
 <path d="m164.4 52.588c-4.9906-1.8508-6.4056 0.51382-2.2306 3.5175 3.2284 1.6562 12.293 6.3151 16.337 8.3895 0.53044 2.5428-0.57518 4.4311-1.6705 6.3236 2.8214-0.55243 5.0395-1.859 6.8619-3.6602 0.57077 0.29282 2.7868 1.4286 3.5529 1.8222 0.1587 1.1881-0.25522 3.3294-1.367 4.9295 1.7818-1.7852 2.6241-2.5619 3.7426-3.7102 2.4683 1.244 3.5152-2.7445 1.7058-3.6748-8.401-4.2319-19.395-10.081-26.932-13.937z" color="#000000" color-rendering="auto" dominant-baseline="auto" image-rendering="auto" shape-rendering="auto" solid-color="#000000" style="font-feature-settings:normal;font-variant-alternates:normal;font-variant-caps:normal;font-variant-ligatures:normal;font-variant-numeric:normal;font-variant-position:normal;isolation:auto;mix-blend-mode:normal;paint-order:stroke fill markers;shape-padding:0;text-decoration-color:#000000;text-decoration-line:none;text-decoration-style:solid;text-indent:0;text-orientation:mixed;text-transform:none;white-space:normal"/>
</svg>
